<svg width="296" height="160" viewBox="0 0 296 160" fill="none" xmlns="http://www.w3.org/2000/svg">
<path d="M152.885 0C140.285 0 129.004 3.36997 119.041 10.1098C109.077 16.703 101.24 26.007 95.5254 38.0215C93.724 41.7627 92.2369 45.731 91.0034 49.88H126.395C128.815 43.8642 132.079 39.2499 136.184 36.0426C141.019 32.3797 146.585 30.5489 152.885 30.5489C159.479 30.5489 165.121 32.4527 169.81 36.2621C173.864 39.4294 177.09 43.9741 179.501 49.88H215.067C213.808 45.7417 212.299 41.7739 210.468 38.0215C204.754 26.007 196.913 16.703 186.95 10.1098C176.986 3.36997 165.633 0 152.885 0ZM1.23751 2.41766V31.6462H31.1281V49.88H65.4152V2.41766H1.23751ZM230.688 2.41766V31.6462H260.575V49.88H294.863V2.41766H230.688ZM31.1281 105.606V157.579H65.4152V105.606H31.1281ZM89.9026 105.606C91.2909 111.3 93.1478 116.696 95.5254 121.756C101.386 133.771 109.37 143.148 119.48 149.887C129.589 156.627 140.87 159.997 153.324 159.997C165.925 159.997 177.133 156.7 186.95 150.107C196.913 143.367 204.754 133.99 210.468 121.976C212.953 116.882 214.876 111.411 216.307 105.606H181.107C180.932 106.156 180.766 106.716 180.578 107.25C178.087 114.576 174.498 120.145 169.809 123.955C165.121 127.617 159.551 129.448 153.105 129.448C146.658 129.448 141.019 127.545 136.184 123.735C131.495 119.926 127.903 114.356 125.412 107.031C125.255 106.569 125.12 106.081 124.973 105.606H89.9026ZM260.575 105.606V157.579H294.863V105.606H260.575Z" fill="#E50000"/>
<path d="M48.3693 64.0725C45.2738 60.426 41.6552 59.3534 35.5515 59.3534H17.4583C6.64599 59.3534 0.324219 66.1638 0.324219 78.0683V78.1206C0.324219 89.9716 6.64599 96.7819 17.4583 96.7819H35.5515C41.786 96.7819 45.3174 95.6557 48.3693 92.0629L43.2246 84.6091C41.568 86.8077 39.2137 87.2904 35.5515 87.2904H17.4583C11.9649 87.2904 8.82585 84.1265 8.82585 78.1206V78.0683C8.82585 72.0088 11.9213 68.8449 17.4583 68.8449H35.5515C39.0829 68.8449 41.5243 69.2741 43.2246 71.5262L48.3693 64.0725Z" fill="white"/>
<path d="M100.506 96.6218L93.7922 84.3955C98.1956 82.1969 99.7215 77.9606 99.7215 72.9735V72.9212C99.7215 65.4674 96.4082 59.5152 85.5523 59.5152H53.3333V96.623H61.8349V86.0042H85.4214L90.8712 96.6218H100.506ZM85.5523 68.7909C89.7376 68.7909 91.2635 70.0242 91.2635 72.9199V72.9723C91.2635 75.9216 89.7376 77.1013 85.5523 77.1013H61.8349V68.7895L85.5523 68.7909Z" fill="white"/>
<path d="M105.873 59.5152V96.623H148.992V87.6679H114.375V82.4662H145.329V73.7792H114.375V68.4705H148.992V59.5152H105.873Z" fill="white"/>
<path d="M183.696 59.5152H175.238L152.654 96.623H162.202L166.082 90.0808H192.851L196.731 96.623H206.279L183.696 59.5152ZM187.75 81.6082H171.183L179.467 68.0414L187.75 81.6082Z" fill="white"/>
<path d="M202.619 59.5152V69.2747H220.45V96.623H229.301V69.2747H247.132V59.5152H202.619Z" fill="white"/>
<path d="M252.406 59.5152V96.623H295.524V87.6679H260.907V82.4662H291.862V73.7792H260.907V68.4705H295.524V59.5152H252.406Z" fill="white"/>
</svg>
