<svg width="400" height="340" viewBox="0 0 400 340" fill="none" xmlns="http://www.w3.org/2000/svg">
<path fill-rule="evenodd" clip-rule="evenodd" d="M200.014 296.939C270.178 296.939 327.058 240.059 327.058 169.894C327.058 99.7295 270.178 42.8496 200.014 42.8496C129.849 42.8496 72.9688 99.7295 72.9688 169.894C72.9688 240.059 129.849 296.939 200.014 296.939ZM200.014 280.066C260.86 280.066 310.185 230.741 310.185 169.894C310.185 109.048 260.86 59.7227 200.014 59.7227C139.167 59.7227 89.8419 109.048 89.8419 169.894C89.8419 230.741 139.167 280.066 200.014 280.066Z" fill="#FFB843"/>
<path fill-rule="evenodd" clip-rule="evenodd" d="M200.014 296.939C270.178 296.939 327.058 240.059 327.058 169.894C327.058 99.7295 270.178 42.8496 200.014 42.8496C129.849 42.8496 72.9688 99.7295 72.9688 169.894C72.9688 240.059 129.849 296.939 200.014 296.939ZM200.014 280.066C260.86 280.066 310.185 230.741 310.185 169.894C310.185 109.048 260.86 59.7227 200.014 59.7227C139.167 59.7227 89.8419 109.048 89.8419 169.894C89.8419 230.741 139.167 280.066 200.014 280.066Z" fill="url(#paint0_linear_2946_7495)"/>
<path d="M325.558 169.894C325.558 239.231 269.35 295.439 200.014 295.439V298.439C271.007 298.439 328.558 240.888 328.558 169.894H325.558ZM200.014 44.3496C269.35 44.3496 325.558 100.558 325.558 169.894H328.558C328.558 98.9011 271.007 41.3496 200.014 41.3496V44.3496ZM74.4688 169.894C74.4688 100.558 130.677 44.3496 200.014 44.3496V41.3496C129.02 41.3496 71.4688 98.9011 71.4688 169.894H74.4688ZM200.014 295.439C130.677 295.439 74.4688 239.231 74.4688 169.894H71.4688C71.4688 240.888 129.02 298.439 200.014 298.439V295.439ZM308.685 169.894C308.685 229.912 260.031 278.566 200.014 278.566V281.566C261.688 281.566 311.685 231.569 311.685 169.894H308.685ZM200.014 61.2227C260.031 61.2227 308.685 109.877 308.685 169.894H311.685C311.685 108.22 261.688 58.2227 200.014 58.2227V61.2227ZM91.3419 169.894C91.3419 109.877 139.996 61.2227 200.014 61.2227V58.2227C138.339 58.2227 88.3419 108.22 88.3419 169.894H91.3419ZM200.014 278.566C139.996 278.566 91.3419 229.912 91.3419 169.894H88.3419C88.3419 231.569 138.339 281.566 200.014 281.566V278.566Z" fill="#292929"/>
<path d="M309.869 166.879C295.913 123.046 238.099 54.393 142.201 75.9252C210.839 32.7834 308.843 76.9242 309.869 166.879Z" fill="white" stroke="#292929" stroke-width="3" stroke-linejoin="round"/>
<path fill-rule="evenodd" clip-rule="evenodd" d="M101.305 53.3893C115.313 49.6803 123.662 35.3184 119.953 21.3109C116.244 7.3034 101.882 -1.04523 87.8743 2.66369C79.6133 4.85105 73.3205 10.7437 70.3085 18.0837C61.2073 13.7733 50.5922 12.5334 40.0952 15.3128C16.4971 21.5611 2.43225 45.7565 8.6806 69.3547C14.9289 92.9528 39.1243 107.018 62.7225 100.769C83.8108 95.1855 97.2858 75.2692 95.4544 54.2548C97.3917 54.1892 99.3521 53.9065 101.305 53.3893Z" fill="#FFB843"/>
<path fill-rule="evenodd" clip-rule="evenodd" d="M101.305 53.3893C115.313 49.6803 123.662 35.3184 119.953 21.3109C116.244 7.3034 101.882 -1.04523 87.8743 2.66369C79.6133 4.85105 73.3205 10.7437 70.3085 18.0837C61.2073 13.7733 50.5922 12.5334 40.0952 15.3128C16.4971 21.5611 2.43225 45.7565 8.6806 69.3547C14.9289 92.9528 39.1243 107.018 62.7225 100.769C83.8108 95.1855 97.2858 75.2692 95.4544 54.2548C97.3917 54.1892 99.3521 53.9065 101.305 53.3893Z" fill="url(#paint1_linear_2946_7495)"/>
<path d="M119.953 21.3109L118.503 21.6948L119.953 21.3109ZM101.305 53.3893L100.922 51.9392L101.305 53.3893ZM87.8743 2.66369L87.4904 1.21366L87.8743 2.66369ZM70.3085 18.0837L69.6664 19.4393L71.0958 20.1163L71.6962 18.6531L70.3085 18.0837ZM40.0952 15.3128L40.4792 16.7628L40.0952 15.3128ZM8.6806 69.3547L10.1306 68.9707L8.6806 69.3547ZM62.7225 100.769L62.3385 99.3192L62.7225 100.769ZM95.4544 54.2548L95.4036 52.7557L93.8227 52.8092L93.9601 54.3851L95.4544 54.2548ZM118.503 21.6948C122 34.9015 114.128 48.4424 100.922 51.9392L101.689 54.8393C116.498 50.9183 125.324 35.7353 121.403 20.9269L118.503 21.6948ZM88.2583 4.11372C101.465 0.616845 115.006 8.48817 118.503 21.6948L121.403 20.9269C117.482 6.11863 102.299 -2.70731 87.4904 1.21366L88.2583 4.11372ZM71.6962 18.6531C74.5376 11.7289 80.4704 6.17578 88.2583 4.11372L87.4904 1.21366C78.7562 3.52631 72.1034 9.75847 68.9208 17.5142L71.6962 18.6531ZM40.4792 16.7628C50.6211 14.0774 60.8734 15.2748 69.6664 19.4393L70.9505 16.728C61.5413 12.2717 50.5633 10.9893 39.7113 13.8628L40.4792 16.7628ZM10.1306 68.9707C4.09433 46.1734 17.6818 22.7991 40.4792 16.7628L39.7113 13.8628C15.3123 20.3231 0.770177 45.3396 7.23057 69.7386L10.1306 68.9707ZM62.3385 99.3192C39.5412 105.356 16.1669 91.7681 10.1306 68.9707L7.23057 69.7386C13.691 94.1376 38.7074 108.68 63.1064 102.219L62.3385 99.3192ZM93.9601 54.3851C95.7293 74.6852 82.7097 93.9253 62.3385 99.3192L63.1064 102.219C84.9119 96.4456 98.8424 75.8532 96.9487 54.1246L93.9601 54.3851ZM100.922 51.9392C99.0777 52.4274 97.2292 52.6939 95.4036 52.7557L95.5051 55.754C97.5543 55.6846 99.6264 55.3855 101.689 54.8393L100.922 51.9392Z" fill="#292929"/>
<path d="M32.5842 26.1047C31.923 26.4844 31.652 27.2998 31.9541 27.9998C32.2562 28.6999 33.0355 29.0619 33.7653 28.8412C48.7932 24.2985 60.671 27.5173 69.3474 33.7775C78.0845 40.0815 83.638 49.5212 85.7879 57.4257C85.9822 58.1401 86.6687 58.6059 87.4044 58.5224C88.1401 58.439 88.7048 57.8312 88.7341 57.0914L87.2353 57.032C88.7341 57.0914 88.7342 57.0907 88.7342 57.09L88.7342 57.0884L88.7344 57.084L88.7348 57.0713L88.7361 57.0301C88.737 56.9957 88.7381 56.9475 88.7389 56.886C88.7406 56.763 88.7413 56.5869 88.738 56.3621C88.7314 55.9127 88.7087 55.2679 88.6452 54.4633C88.5184 52.8555 88.228 50.6023 87.5741 47.9911C86.2672 42.7727 83.4951 36.0761 77.6287 30.2696C66.7789 19.5305 48.8749 16.7479 32.5842 26.1047Z" fill="white" stroke="#292929" stroke-width="3" stroke-linejoin="round"/>
<path d="M110.779 15.1446C112.693 17.3303 113.832 19.7343 114.182 21.7987C114.537 23.8913 114.061 25.3786 113.148 26.1785C112.235 26.9785 110.698 27.2537 108.67 26.6264C106.67 26.0076 104.437 24.5621 102.522 22.3764C100.608 20.1907 99.4692 17.7867 99.1193 15.7223C98.7645 13.6296 99.2398 12.1424 100.153 11.3425C101.066 10.5425 102.603 10.2673 104.631 10.8946C106.631 11.5134 108.864 12.9589 110.779 15.1446Z" fill="white" stroke="#292929" stroke-width="3"/>
<defs>
<linearGradient id="paint0_linear_2946_7495" x1="234.956" y1="119.392" x2="82.0651" y2="418.063" gradientUnits="userSpaceOnUse">
<stop stop-color="#FFB843"/>
<stop offset="1" stop-color="white"/>
</linearGradient>
<linearGradient id="paint1_linear_2946_7495" x1="79.6422" y1="32.0489" x2="23.6547" y2="155.754" gradientUnits="userSpaceOnUse">
<stop stop-color="#FFB843"/>
<stop offset="1" stop-color="white"/>
</linearGradient>
</defs>
</svg>
